<?xml version="1.0" encoding="utf-8"?>
<!-- Generator: Adobe Illustrator 26.3.1, SVG Export Plug-In . SVG Version: 6.00 Build 0)  -->
<svg version="1.1"
	 id="svg2" xmlns:rdf="http://www.w3.org/1999/02/22-rdf-syntax-ns#" xmlns:svg="http://www.w3.org/2000/svg" xmlns:cc="http://creativecommons.org/ns#" xmlns:dc="http://purl.org/dc/elements/1.1/"
	 xmlns="http://www.w3.org/2000/svg" xmlns:xlink="http://www.w3.org/1999/xlink" x="0px" y="0px" viewBox="0 0 356.6 49.5"
	 style="enable-background:new 0 0 356.6 49.5;" xml:space="preserve">
<style type="text/css">
	.st0{fill:#666666;}
</style>
<g id="g10" transform="matrix(1.3333333,0,0,-1.3333333,0,50.666667)">
	<g id="g12" transform="scale(0.1)">
		<path id="path14" class="st0" d="M1569.6,172.5c-4,0.7-17.3,2.9-21.2,3.6c-21.1,3.8-39.2,8.7-39.2,29.9
			c0,18.2,19.1,26.7,42.9,26.7c35.4,0,66.4-16,69.9-17.8l19.4,51.1c-7.5,3.9-39,20.7-88.7,20.7c-45.5,0-101.1-23.9-101.1-83.4
			c0-53.2,38-70.3,74.7-76.8c5.1-0.9,21-3.6,25.5-4.4c24.7-4.2,38.2-13.3,38.2-29.5c0-20.5-19.2-30.1-48.3-30.1
			c-46.6,0-74,13.9-81.9,17.1l-21.5-50c6.7-3.4,38.5-21.4,100.6-21.4c60.2,0,108.6,29.8,108.6,85.4
			C1647,145.5,1612.3,165.2,1569.6,172.5"/>
		<path id="path16" class="st0" d="M1753.6,380l-57-31.5v-66.8h-30v-54.5h30V109.2c0-50.4,20.7-95.6,93.7-95.6h22.8v54.6h-8.6
			c-35.9,0-51,20.7-51,48.8v110.1h65.5v54.5h-65.5L1753.6,380"/>
		<path id="path18" class="st0" d="M2199.1,231.4c22.3,0,45.1-10.1,51.9-34.6l51.7,19.7c-14.5,51.2-62.1,70.4-104,70.4
			c-75.2,0-105.5-46.7-105.5-92.1v-94.2c0-45.4,30.3-92.1,105.5-92.1c42,0,89.6,19.2,104,70.4L2251,98.5
			c-6.8-24.5-29.6-34.6-51.9-34.6c-38.7,0-49,21.2-49,45.4v76.8C2150.1,210.2,2160.4,231.4,2199.1,231.4"/>
		<path id="path20" class="st0" d="M2442.9,161.3l106.6,120.4h-70.1l-91.7-104.9V380h-57.1V13.7h57.1V99l18.7,21.1l81.6-106.4h68.4
			L2442.9,161.3"/>
		<path id="path22" class="st0" d="M1978.6,223.2h-59.3c-9.4,0-17.1-7.7-17.1-17.1v-64.3h-58.5v64.3c0,41.7,33.8,75.5,75.6,75.5
			h59.3V223.2"/>
		<path id="path24" class="st0" d="M1930.4,72.1h59.3c9.4,0,17.1,7.6,17.1,17.1v64.3h58.5V89.2c0-41.7-33.8-75.6-75.5-75.6h-59.3
			V72.1"/>
		<path id="path26" class="st0" d="M963.4,281.7h65.5v-54.5h-65.5V117.1c0-28.1,15.1-48.8,50.9-48.8h8.6V13.7H1000
			c-73,0-93.7,45.2-93.7,95.6v117.9h-96V117.1c0-28.1,15.1-48.8,50.9-48.8h8.5V13.7H847c-73,0-93.7,45.2-93.7,95.6v117.9h-28.9v54.5
			h28.9v66.8l57.1,31.5v-98.3h96v66.8l57,31.5V281.7"/>
		<path id="path28" class="st0" d="M347.8,286.9c-18,0-36.3-3.5-52.8-10.5V380h-57V13.7h57v209.4c11.5,7.2,28,11.5,44.1,11.5
			c35.8,0,52.7-19.9,52.7-49.3V13.7h57V193C448.8,247.1,409.6,286.9,347.8,286.9"/>
		<path id="path30" class="st0" d="M636.8,67c-10.8-5.8-24.6-9.2-38.2-9.2c-42.6,0-58.6,21.7-58.6,51.6v172.3h-57V108.3
			C483,40.9,522,8.5,591.6,8.5c33.3,0,70.3,8.4,102.2,22.3v250.9h-57V67"/>
		<path id="path32" class="st0" d="M131.3,172.5c-3.9,0.7-17.3,2.9-21.2,3.6c-21,3.8-39.1,8.7-39.1,29.9c0,18.2,19.1,26.7,42.9,26.7
			c35.4,0,66.4-16,69.9-17.8l19.4,51.1c-7.4,3.9-39,20.7-88.7,20.7c-45.5,0-101.1-23.9-101.1-83.4c0-53.2,38-70.3,74.7-76.8
			c5.1-0.9,21-3.6,25.6-4.4c24.6-4.2,38.1-13.3,38.1-29.5c0-20.5-19.2-30.1-48.3-30.1c-46.7,0-74,13.9-81.9,17.1L0,29.8
			C6.7,26.4,38.5,8.5,100.6,8.5c60.3,0,108.6,29.8,108.6,85.4C208.7,145.5,173.9,165.2,131.3,172.5"/>
		<path id="path34" class="st0" d="M1207.6,168h-96.2v19.5c0,21.8,10.9,45.1,48.4,45.1c36.1,0,47.8-22.7,47.8-44V168z M1264.6,194.8
			c0,49-37.4,92.1-104.5,92.1c-76.3,0-105.5-47.6-105.5-92.1v-89c0-61.6,39.4-97.3,105.5-97.3c58.4,0,88.7,33.8,97.7,54l-48.1,28.9
			c-4.1-11.9-23.2-28.6-49.2-28.6c-35.3,0-48.8,19.7-48.8,44.3l-0.2,14.7h153.2L1264.6,194.8"/>
		<path id="path36" class="st0" d="M1301.1,194.7v-181h57v176.1c0,15.4,8.7,41.7,50.6,41.7c6.6,0,21.4-1.9,26.2-2.8V284
			c-5.1,1.2-16.9,2.9-29.1,2.9C1333.3,286.9,1301.1,241.4,1301.1,194.7"/>
		<path id="path38" class="st0" d="M2621.4,263.8c0,3.5-2.2,6.9-8.2,6.9h-6v-15.1h6c6.5,0,8.2,2.9,8.2,7.6V263.8z M2620.5,231.8
			c-0.5,0-0.9,0.2-1.1,0.7l-7.1,15.6h-5.1v-15.3c0-0.4-0.3-0.9-0.7-0.9h-8.9c-0.4,0-0.9,0.4-0.9,0.9v46h17.8
			c12,0,17.3-7.6,17.3-14.7v-0.9c0-6.2-3.3-12-9.3-14.7l8.9-15.8c0.2-0.4,0-0.9-0.5-0.9L2620.5,231.8z M2613.2,290.4
			c-20.2,0-34.9-15.8-34.9-36c0-18.9,14.9-34.9,34.9-34.9c20.2,0,34.7,16,34.7,34.9C2647.8,274.4,2632.1,290.4,2613.2,290.4z
			 M2613.2,209.1c-25.8,0-46.7,19.6-46.7,45.4c0,25.8,20.9,46.5,46.7,46.5c25.6,0,46.5-20.9,46.5-46.5
			C2659.6,228.6,2638.9,209.1,2613.2,209.1"/>
	</g>
</g>
</svg>
